<svg width="8" height="14" viewBox="0 0 8 14" fill="none" xmlns="http://www.w3.org/2000/svg">
<path d="M0.475582 6.26291L6.13558 0.612906C6.22854 0.519178 6.33915 0.444784 6.46101 0.394015C6.58286 0.343247 6.71357 0.317108 6.84558 0.317108C6.97759 0.317108 7.1083 0.343247 7.23016 0.394015C7.35202 0.444784 7.46262 0.519178 7.55558 0.612906C7.74183 0.800269 7.84637 1.05372 7.84637 1.31791C7.84637 1.58209 7.74183 1.83554 7.55558 2.02291L2.60558 7.02291L7.55558 11.9729C7.74183 12.1603 7.84637 12.4137 7.84637 12.6779C7.84637 12.9421 7.74183 13.1955 7.55558 13.3829C7.46297 13.4774 7.35252 13.5526 7.23065 13.6041C7.10877 13.6556 6.97789 13.6824 6.84558 13.6829C6.71327 13.6824 6.58239 13.6556 6.46052 13.6041C6.33864 13.5526 6.2282 13.4774 6.13558 13.3829L0.475582 7.73291C0.374077 7.63926 0.293069 7.52561 0.237661 7.39911C0.182254 7.27261 0.153649 7.13601 0.153649 6.99791C0.153649 6.8598 0.182254 6.7232 0.237661 6.5967C0.293069 6.4702 0.374077 6.35655 0.475582 6.26291Z" fill="#F9FAFB"/>
</svg>
