<svg width="13" height="17" viewBox="0 0 13 17" fill="none" xmlns="http://www.w3.org/2000/svg">
<path d="M12.1875 4.00397H9.75V3.20397C9.75 2.35527 9.40759 1.54134 8.7981 0.941226C8.1886 0.341109 7.36195 0.00396729 6.5 0.00396729C5.63805 0.00396729 4.8114 0.341109 4.2019 0.941226C3.59241 1.54134 3.25 2.35527 3.25 3.20397V4.00397H0.8125C0.597012 4.00397 0.390349 4.08825 0.237976 4.23828C0.0856026 4.38831 0 4.59179 0 4.80397V13.604C0 14.2405 0.256807 14.8509 0.713927 15.301C1.17105 15.7511 1.79103 16.004 2.4375 16.004H10.5625C11.209 16.004 11.829 15.7511 12.2861 15.301C12.7432 14.8509 13 14.2405 13 13.604V4.80397C13 4.59179 12.9144 4.38831 12.762 4.23828C12.6097 4.08825 12.403 4.00397 12.1875 4.00397ZM4.875 3.20397C4.875 2.77962 5.04621 2.37265 5.35095 2.0726C5.6557 1.77254 6.06902 1.60397 6.5 1.60397C6.93098 1.60397 7.3443 1.77254 7.64905 2.0726C7.95379 2.37265 8.125 2.77962 8.125 3.20397V4.00397H4.875V3.20397ZM11.375 13.604C11.375 13.8161 11.2894 14.0196 11.137 14.1697C10.9847 14.3197 10.778 14.404 10.5625 14.404H2.4375C2.22201 14.404 2.01535 14.3197 1.86298 14.1697C1.7106 14.0196 1.625 13.8161 1.625 13.604V5.60397H3.25V6.40397C3.25 6.61614 3.3356 6.81962 3.48798 6.96965C3.64035 7.11968 3.84701 7.20397 4.0625 7.20397C4.27799 7.20397 4.48465 7.11968 4.63702 6.96965C4.7894 6.81962 4.875 6.61614 4.875 6.40397V5.60397H8.125V6.40397C8.125 6.61614 8.2106 6.81962 8.36298 6.96965C8.51535 7.11968 8.72201 7.20397 8.9375 7.20397C9.15299 7.20397 9.35965 7.11968 9.51202 6.96965C9.6644 6.81962 9.75 6.61614 9.75 6.40397V5.60397H11.375V13.604Z" fill="#0F172A"/>
</svg>
