<svg width="16" height="17" viewBox="0 0 16 17" fill="none" xmlns="http://www.w3.org/2000/svg">
<path d="M16 4.45307C15.9946 4.43186 15.9946 4.40993 16 4.38872C15.9954 4.37015 15.9954 4.35098 16 4.33241V4.26002L15.9432 4.13937C15.9201 4.10644 15.8913 4.07662 15.8579 4.05089L15.7726 3.98654H15.7252L11.9923 1.98366L8.4677 0.133622C8.38616 0.0787083 8.29285 0.0377341 8.19294 0.0129675H8.11715C8.03246 0.000967228 7.94602 0.000967228 7.86133 0.0129675H7.76659C7.65653 0.0336334 7.55101 0.068924 7.45393 0.117535L0.376411 3.85784L0.29114 3.91414L0.205868 3.97849L0.111123 4.0348L0.0637498 4.08306L0.00690208 4.20372V4.27611V4.32437C-0.00230069 4.37771 -0.00230069 4.4319 0.00690208 4.48524V11.5074C0.00657987 11.6441 0.047298 11.7786 0.125212 11.8982C0.203127 12.0178 0.315667 12.1186 0.452208 12.1911L7.55815 15.9233L7.70026 15.9716H7.77606C7.93635 16.0148 8.10845 16.0148 8.26874 15.9716H8.34454L8.48665 15.9233L15.5357 12.2474C15.6723 12.1749 15.7848 12.0741 15.8627 11.9545C15.9407 11.8349 15.9814 11.7004 15.9811 11.5637V4.54155C15.9811 4.54155 16 4.48524 16 4.45307ZM7.95608 1.75844L9.64255 2.64325L4.34626 5.42635L2.65031 4.54155L7.95608 1.75844ZM7.00862 13.8239L1.7976 11.1213V5.98137L7.00862 8.71621V13.8239ZM7.95608 7.30053L6.14643 6.3755L11.4427 3.58435L13.2618 4.54155L7.95608 7.30053ZM14.1146 11.0971L8.90354 13.8481V8.71621L14.1146 5.98137V11.0971Z" fill="#0F172A"/>
</svg>
