<svg width="19" height="20" viewBox="0 0 19 20" fill="none" xmlns="http://www.w3.org/2000/svg">
<path d="M17.5 1.68411e-07C17.3687 -7.47612e-05 17.2386 0.0257398 17.1172 0.075968C16.9959 0.126196 16.8856 0.199853 16.7927 0.292726C16.6999 0.3856 16.6262 0.495869 16.576 0.617228C16.5257 0.738587 16.4999 0.868657 16.5 1V1.63672C15.6566 2.68242 14.5907 3.52691 13.3797 4.10872C12.1688 4.69053 10.8434 4.99501 9.5 5H3.5C2.70462 5.00087 1.94206 5.31722 1.37964 5.87964C0.817218 6.44206 0.500868 7.20462 0.5 8V10C0.500868 10.7954 0.817218 11.5579 1.37964 12.1204C1.94206 12.6828 2.70462 12.9991 3.5 13H3.98379L1.58106 18.6064C1.51576 18.7585 1.48926 18.9244 1.50391 19.0892C1.51857 19.254 1.57393 19.4126 1.66503 19.5508C1.75613 19.689 1.88011 19.8023 2.02585 19.8807C2.17159 19.9591 2.33451 20.0001 2.5 20H6.5C6.69575 20.0001 6.88722 19.9427 7.05061 19.8349C7.21399 19.7271 7.34208 19.5736 7.41895 19.3936L10.1427 13.038C11.3733 13.1284 12.5724 13.47 13.6658 14.0419C14.7592 14.6138 15.7238 15.4038 16.5 16.3631V17C16.5 17.2652 16.6054 17.5196 16.7929 17.7071C16.9804 17.8946 17.2348 18 17.5 18C17.7652 18 18.0196 17.8946 18.2071 17.7071C18.3946 17.5196 18.5 17.2652 18.5 17V1C18.5001 0.868657 18.4743 0.738587 18.424 0.617227C18.3738 0.495867 18.3001 0.385597 18.2073 0.292723C18.1144 0.19985 18.0041 0.126193 17.8828 0.0759653C17.7614 0.0257376 17.6313 -7.60771e-05 17.5 1.68411e-07ZM3.5 11C3.23484 10.9998 2.98059 10.8944 2.79309 10.7069C2.60559 10.5194 2.50018 10.2652 2.5 10V8C2.50018 7.73484 2.60559 7.48059 2.79309 7.29309C2.98059 7.1056 3.23484 7.00018 3.5 7H4.5V11H3.5ZM5.84082 18H4.0166L6.15918 13H7.9834L5.84082 18ZM16.5 13.5218C14.5283 11.8974 12.0547 11.0063 9.5 11H6.5V6.99995H9.5C12.0547 6.99342 14.5283 6.10211 16.5 4.47761V13.5218Z" fill="#F9FAFB"/>
</svg>
