<svg width="20" height="21" viewBox="0 0 20 21" fill="none" xmlns="http://www.w3.org/2000/svg">
<path d="M9.29 13.7256C9.3851 13.8167 9.49725 13.888 9.62 13.9356C9.86346 14.0356 10.1365 14.0356 10.38 13.9356C10.5028 13.888 10.6149 13.8167 10.71 13.7256L13.71 10.7256C13.8983 10.5373 14.0041 10.2819 14.0041 10.0156C14.0041 9.74933 13.8983 9.49393 13.71 9.30563C13.5217 9.11733 13.2663 9.01154 13 9.01154C12.7337 9.01154 12.4783 9.11733 12.29 9.30563L11 10.6056V7.01563C11 6.75041 10.8946 6.49606 10.7071 6.30852C10.5196 6.12099 10.2652 6.01563 10 6.01563C9.73478 6.01563 9.48043 6.12099 9.29289 6.30852C9.10536 6.49606 9 6.75041 9 7.01563V10.6056L7.71 9.30563C7.61704 9.2119 7.50644 9.13751 7.38458 9.08674C7.26272 9.03597 7.13201 9.00983 7 9.00983C6.86799 9.00983 6.73728 9.03597 6.61542 9.08674C6.49356 9.13751 6.38296 9.2119 6.29 9.30563C6.19627 9.39859 6.12188 9.50919 6.07111 9.63105C6.02034 9.75291 5.9942 9.88362 5.9942 10.0156C5.9942 10.1476 6.02034 10.2783 6.07111 10.4002C6.12188 10.5221 6.19627 10.6327 6.29 10.7256L9.29 13.7256ZM10 20.0156C11.9778 20.0156 13.9112 19.4291 15.5557 18.3303C17.2002 17.2315 18.4819 15.6697 19.2388 13.8425C19.9957 12.0152 20.1937 10.0045 19.8079 8.06473C19.422 6.12492 18.4696 4.34309 17.0711 2.94456C15.6725 1.54604 13.8907 0.593629 11.9509 0.207777C10.0111 -0.178076 8.00043 0.0199578 6.17317 0.776834C4.3459 1.53371 2.78412 2.81544 1.6853 4.45993C0.58649 6.10442 0 8.03782 0 10.0156C0 12.6678 1.05357 15.2113 2.92893 17.0867C3.85752 18.0153 4.95991 18.7519 6.17317 19.2544C7.38642 19.757 8.68678 20.0156 10 20.0156ZM10 2.01563C11.5823 2.01563 13.129 2.48482 14.4446 3.36387C15.7602 4.24292 16.7855 5.49235 17.391 6.95416C17.9965 8.41597 18.155 10.0245 17.8463 11.5764C17.5376 13.1282 16.7757 14.5537 15.6569 15.6725C14.538 16.7913 13.1126 17.5532 11.5607 17.8619C10.0089 18.1706 8.40034 18.0122 6.93853 17.4067C5.47672 16.8012 4.22729 15.7758 3.34824 14.4602C2.46919 13.1446 2 11.5979 2 10.0156C2 7.8939 2.84285 5.85907 4.34315 4.35878C5.84344 2.85848 7.87827 2.01563 10 2.01563Z" fill="#F9FAFB"/>
</svg>
