<svg width="14" height="14" viewBox="0 0 14 14" fill="none" xmlns="http://www.w3.org/2000/svg">
<path d="M6.33479 6.30285L12.2209 0.807478C12.3175 0.716315 12.4326 0.643957 12.5593 0.594578C12.686 0.545199 12.8219 0.519775 12.9592 0.519775C13.0965 0.519775 13.2324 0.545199 13.3592 0.594578C13.4859 0.643957 13.6009 0.716315 13.6976 0.807478C13.8913 0.989713 14 1.23623 14 1.49318C14 1.75014 13.8913 1.99665 13.6976 2.17889L8.54987 7.04205L13.6976 11.8566C13.8913 12.0388 14 12.2853 14 12.5423C14 12.7992 13.8913 13.0458 13.6976 13.228C13.6013 13.3199 13.4864 13.393 13.3597 13.4431C13.2329 13.4932 13.0968 13.5192 12.9592 13.5198C12.8216 13.5192 12.6855 13.4932 12.5588 13.4431C12.432 13.393 12.3172 13.3199 12.2209 13.228L6.33479 7.73262C6.22923 7.64154 6.14499 7.531 6.08737 7.40796C6.02975 7.28492 6 7.15205 6 7.01773C6 6.88341 6.02975 6.75054 6.08737 6.62751C6.14499 6.50447 6.22923 6.39393 6.33479 6.30285Z" fill="#F9FAFB"/>
<path d="M0.334792 6.30285L6.22087 0.807478C6.31755 0.716315 6.43257 0.643957 6.55929 0.594578C6.68602 0.545199 6.82195 0.519775 6.95923 0.519775C7.09652 0.519775 7.23244 0.545199 7.35917 0.594578C7.4859 0.643957 7.60092 0.716315 7.69759 0.807478C7.89128 0.989713 8 1.23623 8 1.49318C8 1.75014 7.89128 1.99665 7.69759 2.17889L2.54987 7.04205L7.69759 11.8566C7.89128 12.0388 8 12.2853 8 12.5423C8 12.7992 7.89128 13.0458 7.69759 13.228C7.60128 13.3199 7.48642 13.393 7.35968 13.4431C7.23293 13.4932 7.09682 13.5192 6.95923 13.5198C6.82164 13.5192 6.68553 13.4932 6.55879 13.4431C6.43204 13.393 6.31719 13.3199 6.22087 13.228L0.334792 7.73262C0.229233 7.64154 0.144988 7.531 0.0873678 7.40796C0.0297473 7.28492 0 7.15205 0 7.01773C0 6.88341 0.0297473 6.75054 0.0873678 6.62751C0.144988 6.50447 0.229233 6.39393 0.334792 6.30285Z" fill="#F9FAFB"/>
</svg>
