<svg width="16" height="17" viewBox="0 0 16 17" fill="none" xmlns="http://www.w3.org/2000/svg">
<path d="M6.39627 8.89286H9.60373C9.8164 8.89286 10.0204 8.79921 10.1707 8.63251C10.3211 8.46581 10.4056 8.23972 10.4056 8.00397C10.4056 7.76822 10.3211 7.54213 10.1707 7.37543C10.0204 7.20873 9.8164 7.11508 9.60373 7.11508H6.39627C6.1836 7.11508 5.97964 7.20873 5.82926 7.37543C5.67888 7.54213 5.5944 7.76822 5.5944 8.00397C5.5944 8.23972 5.67888 8.46581 5.82926 8.63251C5.97964 8.79921 6.1836 8.89286 6.39627 8.89286ZM13.6131 0.00396729H2.38694C1.82279 0.00881917 1.27813 0.233312 0.848165 0.638203C0.418198 1.04309 0.130282 1.60262 0.0347471 2.21898C-0.0607882 2.83534 0.0421353 3.46931 0.325525 4.01007C0.608916 4.55084 1.05474 4.96399 1.58507 5.1773V13.3373C1.58507 14.0445 1.83852 14.7228 2.28966 15.2229C2.74079 15.723 3.35267 16.004 3.99067 16.004H12.0093C12.6473 16.004 13.2592 15.723 13.7103 15.2229C14.1615 14.7228 14.4149 14.0445 14.4149 13.3373V5.1773C14.9453 4.96399 15.3911 4.55084 15.6745 4.01007C15.9579 3.46931 16.0608 2.83534 15.9653 2.21898C15.8697 1.60262 15.5818 1.04309 15.1518 0.638203C14.7219 0.233312 14.1772 0.00881917 13.6131 0.00396729ZM12.8112 13.3373C12.8112 13.573 12.7267 13.7991 12.5763 13.9658C12.426 14.1325 12.222 14.2262 12.0093 14.2262H3.99067C3.778 14.2262 3.57405 14.1325 3.42367 13.9658C3.27329 13.7991 3.18881 13.573 3.18881 13.3373V5.3373H12.8112V13.3373ZM13.6131 3.55952H2.38694C2.17427 3.55952 1.97031 3.46587 1.81993 3.29917C1.66956 3.13247 1.58507 2.90638 1.58507 2.67063C1.58507 2.43489 1.66956 2.20879 1.81993 2.04209C1.97031 1.8754 2.17427 1.78175 2.38694 1.78175H13.6131C13.8257 1.78175 14.0297 1.8754 14.1801 2.04209C14.3304 2.20879 14.4149 2.43489 14.4149 2.67063C14.4149 2.90638 14.3304 3.13247 14.1801 3.29917C14.0297 3.46587 13.8257 3.55952 13.6131 3.55952Z" fill="#0F172A"/>
</svg>
