<svg width="21" height="20" viewBox="0 0 21 20" fill="none" xmlns="http://www.w3.org/2000/svg">
<path d="M19.6578 0.187887C18.942 0.0657961 18.2171 0.00295143 17.4907 4.30177e-06C15.0124 -0.00200751 12.5857 0.70167 10.5 2.02716C8.40892 0.719074 5.98264 0.032667 3.50928 0.0494471C2.78289 0.0523942 2.05801 0.115239 1.34215 0.23733C1.10767 0.277357 0.895324 0.398967 0.743359 0.580258C0.591393 0.761549 0.509792 0.990609 0.513251 1.22619V13.0925C0.511112 13.2378 0.54134 13.3817 0.601783 13.5141C0.662227 13.6466 0.751401 13.7642 0.86296 13.8586C0.974519 13.953 1.10572 14.0219 1.24723 14.0604C1.38874 14.0989 1.53708 14.106 1.6817 14.0813C3.11282 13.836 4.57906 13.8767 5.99404 14.201C7.40903 14.5254 8.74415 15.1269 9.92077 15.97L10.0406 16.0393H10.1505C10.2612 16.0849 10.38 16.1085 10.5 16.1085C10.62 16.1085 10.7388 16.0849 10.8495 16.0393H10.9594L11.0792 15.97C12.2476 15.108 13.5789 14.4871 14.9942 14.144C16.4094 13.8008 17.8799 13.7426 19.3183 13.9725C19.4629 13.9973 19.6113 13.9901 19.7528 13.9516C19.8943 13.9131 20.0255 13.8442 20.137 13.7498C20.2486 13.6554 20.3378 13.5378 20.3982 13.4054C20.4587 13.273 20.4889 13.129 20.4867 12.9837V1.11741C20.4764 0.892104 20.3885 0.677085 20.2377 0.508017C20.087 0.33895 19.8824 0.225994 19.6578 0.187887ZM9.50133 13.3298C7.65366 12.3673 5.59702 11.865 3.50928 11.8663C3.17971 11.8663 2.85015 11.8663 2.5106 11.8663V1.97772C2.84322 1.95874 3.17666 1.95874 3.50928 1.97772C5.63983 1.97539 7.7239 2.59446 9.50133 3.75766V13.3298ZM18.4894 11.9058C18.1498 11.9058 17.8203 11.9058 17.4907 11.9058C15.403 11.9046 13.3463 12.4069 11.4987 13.3693V3.75766C13.2761 2.59446 15.3602 1.97539 17.4907 1.97772C17.8233 1.95874 18.1568 1.95874 18.4894 1.97772V11.9058ZM19.6578 16.0096C18.942 15.8875 18.2171 15.8247 17.4907 15.8217C15.0124 15.8197 12.5857 16.5234 10.5 17.8489C8.41428 16.5234 5.98762 15.8197 3.50928 15.8217C2.78289 15.8247 2.05801 15.8875 1.34215 16.0096C1.21215 16.03 1.08751 16.0757 0.9754 16.144C0.863288 16.2123 0.765917 16.3018 0.688884 16.4075C0.611852 16.5132 0.556678 16.6329 0.526537 16.7598C0.496395 16.8867 0.49188 17.0182 0.513251 17.1468C0.564002 17.4036 0.715473 17.63 0.934482 17.7764C1.15349 17.9228 1.42218 17.9773 1.6817 17.928C3.11282 17.6826 4.57906 17.7233 5.99404 18.0477C7.40903 18.3721 8.74415 18.9735 9.92077 19.8167C10.0899 19.9359 10.2924 20 10.5 20C10.7076 20 10.9101 19.9359 11.0792 19.8167C12.2558 18.9735 13.591 18.3721 15.006 18.0477C16.4209 17.7233 17.8872 17.6826 19.3183 17.928C19.5778 17.9773 19.8465 17.9228 20.0655 17.7764C20.2845 17.63 20.436 17.4036 20.4867 17.1468C20.5081 17.0182 20.5036 16.8867 20.4735 16.7598C20.4433 16.6329 20.3881 16.5132 20.3111 16.4075C20.2341 16.3018 20.1367 16.2123 20.0246 16.144C19.9125 16.0757 19.7878 16.03 19.6578 16.0096Z" fill="#F9FAFB"/>
</svg>
