<svg width="12" height="16" viewBox="0 0 12 16" fill="none" xmlns="http://www.w3.org/2000/svg">
<path d="M12 8C12 7.78783 11.921 7.58434 11.7803 7.43431C11.6397 7.28429 11.4489 7.2 11.25 7.2H5.5575L7.2825 5.368C7.35243 5.29341 7.4079 5.20486 7.44574 5.1074C7.48359 5.00994 7.50307 4.90549 7.50307 4.8C7.50307 4.69451 7.48359 4.59006 7.44574 4.4926C7.4079 4.39514 7.35243 4.30659 7.2825 4.232C7.21257 4.15741 7.12955 4.09824 7.03819 4.05787C6.94682 4.0175 6.84889 3.99673 6.75 3.99673C6.65111 3.99673 6.55318 4.0175 6.46181 4.05787C6.37045 4.09824 6.28743 4.15741 6.2175 4.232L3.2175 7.432C3.14922 7.50808 3.0957 7.5978 3.06 7.696C2.98499 7.89077 2.98499 8.10923 3.06 8.304C3.0957 8.4022 3.14922 8.49192 3.2175 8.568L6.2175 11.768C6.28722 11.843 6.37017 11.9025 6.46157 11.9431C6.55296 11.9837 6.65099 12.0046 6.75 12.0046C6.84901 12.0046 6.94704 11.9837 7.03843 11.9431C7.12983 11.9025 7.21278 11.843 7.2825 11.768C7.3528 11.6936 7.40859 11.6051 7.44667 11.5077C7.48475 11.4102 7.50435 11.3056 7.50435 11.2C7.50435 11.0944 7.48475 10.9898 7.44667 10.8923C7.40859 10.7949 7.3528 10.7064 7.2825 10.632L5.5575 8.8H11.25C11.4489 8.8 11.6397 8.71571 11.7803 8.56569C11.921 8.41566 12 8.21217 12 8ZM9.75 0H2.25C1.65326 0 1.08097 0.252856 0.65901 0.702944C0.237053 1.15303 0 1.76348 0 2.4V13.6C0 14.2365 0.237053 14.847 0.65901 15.2971C1.08097 15.7471 1.65326 16 2.25 16H9.75C10.3467 16 10.919 15.7471 11.341 15.2971C11.7629 14.847 12 14.2365 12 13.6V11.2C12 10.9878 11.921 10.7843 11.7803 10.6343C11.6397 10.4843 11.4489 10.4 11.25 10.4C11.0511 10.4 10.8603 10.4843 10.7197 10.6343C10.579 10.7843 10.5 10.9878 10.5 11.2V13.6C10.5 13.8122 10.421 14.0157 10.2803 14.1657C10.1397 14.3157 9.94891 14.4 9.75 14.4H2.25C2.05109 14.4 1.86032 14.3157 1.71967 14.1657C1.57902 14.0157 1.5 13.8122 1.5 13.6V2.4C1.5 2.18783 1.57902 1.98434 1.71967 1.83431C1.86032 1.68429 2.05109 1.6 2.25 1.6H9.75C9.94891 1.6 10.1397 1.68429 10.2803 1.83431C10.421 1.98434 10.5 2.18783 10.5 2.4V4.8C10.5 5.01217 10.579 5.21566 10.7197 5.36569C10.8603 5.51571 11.0511 5.6 11.25 5.6C11.4489 5.6 11.6397 5.51571 11.7803 5.36569C11.921 5.21566 12 5.01217 12 4.8V2.4C12 1.76348 11.7629 1.15303 11.341 0.702944C10.919 0.252856 10.3467 0 9.75 0Z" fill="#3B82F6"/>
</svg>
