<svg width="21" height="16" viewBox="0 0 21 16" fill="none" xmlns="http://www.w3.org/2000/svg">
<path d="M20.9166 7.6C18.8966 2.91 15.0966 0 10.9966 0C6.89665 0 3.09665 2.91 1.07665 7.6C1.02159 7.72617 0.993164 7.86234 0.993164 8C0.993164 8.13766 1.02159 8.27383 1.07665 8.4C3.09665 13.09 6.89665 16 10.9966 16C15.0966 16 18.8966 13.09 20.9166 8.4C20.9717 8.27383 21.0001 8.13766 21.0001 8C21.0001 7.86234 20.9717 7.72617 20.9166 7.6ZM10.9966 14C7.82665 14 4.82665 11.71 3.09665 8C4.82665 4.29 7.82665 2 10.9966 2C14.1666 2 17.1666 4.29 18.8966 8C17.1666 11.71 14.1666 14 10.9966 14ZM10.9966 4C10.2055 4 9.43217 4.2346 8.77437 4.67412C8.11657 5.11365 7.60388 5.73836 7.30113 6.46927C6.99838 7.20017 6.91917 8.00444 7.07351 8.78036C7.22785 9.55628 7.60881 10.269 8.16822 10.8284C8.72763 11.3878 9.44036 11.7688 10.2163 11.9231C10.9922 12.0775 11.7965 11.9983 12.5274 11.6955C13.2583 11.3928 13.883 10.8801 14.3225 10.2223C14.7621 9.56448 14.9966 8.79113 14.9966 8C14.9966 6.93913 14.5752 5.92172 13.8251 5.17157C13.0749 4.42143 12.0575 4 10.9966 4ZM10.9966 10C10.6011 10 10.2144 9.8827 9.88551 9.66294C9.55661 9.44318 9.30026 9.13082 9.14889 8.76537C8.99751 8.39991 8.95791 7.99778 9.03508 7.60982C9.11225 7.22186 9.30273 6.86549 9.58244 6.58579C9.86214 6.30608 10.2185 6.1156 10.6065 6.03843C10.9944 5.96126 11.3966 6.00087 11.762 6.15224C12.1275 6.30362 12.4398 6.55996 12.6596 6.88886C12.8794 7.21776 12.9966 7.60444 12.9966 8C12.9966 8.53043 12.7859 9.03914 12.4109 9.41421C12.0358 9.78929 11.5271 10 10.9966 10Z" fill="#4B5563"/>
</svg>
