<svg width="480" height="416" viewBox="0 0 480 416" fill="none" xmlns="http://www.w3.org/2000/svg">
<path d="M233.97 324.374C230.231 326.358 226.135 327.59 221.917 327.999C217.699 328.409 213.442 327.987 209.387 326.759C205.333 325.531 201.562 323.52 198.289 320.841C195.015 318.163 192.304 314.869 190.31 311.147L174.151 280.991C154.618 244.538 157.301 199.946 180.958 167.202C193.765 149.468 197.212 126.104 189.37 105.702C175.808 70.4163 134.544 55.1337 101.561 70.7432C93.6449 74.4465 86.5735 79.7216 80.7811 86.2442C74.9888 92.7669 70.5979 100.399 67.8783 108.673C64.5941 118.486 63.7529 128.946 65.4272 139.154C67.5988 152.322 60.422 165.292 48.5972 171.567C29.2021 181.86 4.98927 170.343 1.55064 148.74C-1.62789 128.57 0.0958018 107.937 6.57739 88.5668C17.7229 54.914 41.6518 28.004 73.8396 12.7357C133.402 -15.4539 206.438 6.66621 240.113 63.1014C253.046 84.7257 259.314 109.653 258.14 134.791C256.965 159.928 248.399 184.169 233.505 204.506C223.969 217.538 223.032 235.692 231.113 250.773L247.268 280.922C249.262 284.644 250.5 288.72 250.912 292.918C251.323 297.116 250.899 301.354 249.664 305.389C248.429 309.424 246.407 313.177 243.715 316.435C241.022 319.692 237.711 322.39 233.97 324.374Z" fill="#F87171"/>
<path d="M249.057 415.507C266.72 415.507 281.04 401.257 281.04 383.679C281.04 366.101 266.72 351.851 249.057 351.851C231.393 351.851 217.073 366.101 217.073 383.679C217.073 401.257 231.393 415.507 249.057 415.507Z" fill="#F87171"/>
<path d="M343.339 330.534C339.828 329.999 336.458 328.781 333.422 326.95C330.386 325.118 327.743 322.709 325.645 319.86C323.546 317.01 322.033 313.777 321.192 310.344C320.351 306.912 320.198 303.347 320.743 299.855L325.146 271.563C330.461 237.357 354.767 208.796 387.162 198.652C404.703 193.148 418.81 179.206 423.856 161.611C432.583 131.166 412.649 100.308 382.657 94.3131C375.479 92.8425 368.072 92.8485 360.893 94.3307C353.714 95.8129 346.914 98.7399 340.911 102.932C333.755 107.876 327.911 114.474 323.881 122.159C318.691 132.068 307.326 137.177 296.229 135.481C278.033 132.7 267.616 112.885 276.216 96.6829C284.271 81.57 295.847 68.5936 309.973 58.84C321.961 50.462 335.542 44.6084 349.881 41.6385C364.22 38.6687 379.015 38.6454 393.357 41.5699C447.518 52.4058 485.313 103.703 479.389 158.378C477.14 179.338 468.754 199.185 455.273 215.456C441.792 231.728 423.809 243.707 403.555 249.909C390.586 253.883 380.783 265.588 378.586 279.731L374.182 308.023C373.641 311.515 372.413 314.867 370.569 317.887C368.726 320.908 366.302 323.539 363.437 325.628C360.572 327.718 357.322 329.226 353.872 330.066C350.423 330.906 346.848 331.071 343.339 330.534Z" fill="#3B82F6"/>
<path d="M336.011 415.512C353.674 415.512 367.994 401.262 367.994 383.684C367.994 366.106 353.674 351.856 336.011 351.856C318.347 351.856 304.028 366.106 304.028 383.684C304.028 401.262 318.347 415.512 336.011 415.512Z" fill="#3B82F6"/>
</svg>
