<svg width="12" height="17" viewBox="0 0 12 17" fill="none" xmlns="http://www.w3.org/2000/svg">
<path d="M12 6.052C11.9922 5.97851 11.9771 5.9061 11.955 5.836V5.764C11.9189 5.68174 11.8708 5.60613 11.8125 5.54L7.3125 0.74C7.2505 0.677773 7.17962 0.626465 7.1025 0.588H7.035C6.95881 0.541393 6.87467 0.511475 6.7875 0.5H2.25C1.65326 0.5 1.08097 0.752856 0.65901 1.20294C0.237053 1.65303 0 2.26348 0 2.9V14.1C0 14.7365 0.237053 15.347 0.65901 15.7971C1.08097 16.2471 1.65326 16.5 2.25 16.5H9.75C10.3467 16.5 10.919 16.2471 11.341 15.7971C11.7629 15.347 12 14.7365 12 14.1V6.1C12 6.1 12 6.1 12 6.052ZM7.5 3.228L9.4425 5.3H8.25C8.05109 5.3 7.86032 5.21571 7.71967 5.06569C7.57902 4.91566 7.5 4.71217 7.5 4.5V3.228ZM10.5 14.1C10.5 14.3122 10.421 14.5157 10.2803 14.6657C10.1397 14.8157 9.94891 14.9 9.75 14.9H2.25C2.05109 14.9 1.86032 14.8157 1.71967 14.6657C1.57902 14.5157 1.5 14.3122 1.5 14.1V2.9C1.5 2.68783 1.57902 2.48434 1.71967 2.33431C1.86032 2.18429 2.05109 2.1 2.25 2.1H6V4.5C6 5.13652 6.23705 5.74697 6.65901 6.19706C7.08097 6.64714 7.65326 6.9 8.25 6.9H10.5V14.1Z" fill="#F9FAFB"/>
</svg>
