<svg width="20" height="21" viewBox="0 0 20 21" fill="none" xmlns="http://www.w3.org/2000/svg">
<path d="M10 0.246704C7.6255 0.246805 5.32849 1.11319 3.51999 2.69084C1.71149 4.2685 0.509528 6.45446 0.12916 8.8576C-0.251207 11.2607 0.214845 13.7242 1.44393 15.8073C2.67301 17.8904 4.58491 19.4571 6.83755 20.2271C7.33755 20.3168 7.52505 20.0092 7.52505 19.7401C7.52505 19.4966 7.51254 18.6891 7.51254 17.8305C5.00003 18.3047 4.35003 17.2025 4.15003 16.6258C3.9281 16.0649 3.5763 15.5678 3.12503 15.1775C2.77503 14.9853 2.27503 14.5111 3.11252 14.4983C3.4323 14.5339 3.73901 14.648 4.00666 14.8309C4.2743 15.0138 4.49499 15.2602 4.65003 15.5492C4.7868 15.8011 4.97071 16.0229 5.19122 16.2018C5.41173 16.3807 5.6645 16.5132 5.93506 16.5918C6.20562 16.6704 6.48864 16.6935 6.76791 16.6597C7.04717 16.6259 7.3172 16.536 7.56251 16.395C7.6058 15.8738 7.83237 15.3865 8.20003 15.0238C5.97503 14.7674 3.65003 13.8831 3.65003 9.96138C3.63597 8.94239 4.00271 7.9565 4.67503 7.20591C4.36931 6.32028 4.40508 5.34837 4.77503 4.48888C4.77503 4.48888 5.6125 4.21973 7.52503 5.53981C9.16131 5.0784 10.8887 5.0784 12.525 5.53981C14.4375 4.20693 15.275 4.48888 15.275 4.48888C15.645 5.34836 15.6808 6.32029 15.375 7.20591C16.0494 7.95521 16.4164 8.94196 16.4 9.96138C16.4 13.8959 14.0625 14.7674 11.8375 15.0238C12.0762 15.2718 12.26 15.5695 12.3764 15.8968C12.4929 16.2241 12.5393 16.5732 12.5125 16.9205C12.5125 18.2919 12.5 19.394 12.5 19.7401C12.5 20.0093 12.6875 20.3296 13.1875 20.2271C15.4362 19.4508 17.3426 17.8805 18.5664 15.7963C19.7903 13.7122 20.2519 11.25 19.8689 8.84915C19.4859 6.44833 18.2832 4.26521 16.4755 2.68947C14.6678 1.11374 12.3727 0.24797 10 0.246704Z" fill="black"/>
</svg>
