<svg width="139" height="40" viewBox="0 0 139 40" fill="none" xmlns="http://www.w3.org/2000/svg">
<g clip-path="url(#clip0_29_1011)">
<g clip-path="url(#clip1_29_1011)">
<path fill-rule="evenodd" clip-rule="evenodd" d="M25.5557 11.6853C23.9112 10.5865 21.9778 10 20 10V0C23.9556 0 27.8224 1.17298 31.1114 3.37061C34.4004 5.56823 36.9638 8.69181 38.4776 12.3463C39.9913 16.0008 40.3874 20.0222 39.6157 23.9018C38.844 27.7814 36.9392 31.3451 34.1421 34.1421C31.3451 36.9392 27.7814 38.844 23.9018 39.6157C20.0222 40.3874 16.0008 39.9913 12.3463 38.4776C8.69181 36.9638 5.56823 34.4004 3.37061 31.1114C1.17298 27.8224 0 23.9556 0 20H10C10 21.9778 10.5865 23.9112 11.6853 25.5557C12.7841 27.2002 14.3459 28.4819 16.1732 29.2388C18.0004 29.9957 20.0111 30.1937 21.9509 29.8078C23.8907 29.422 25.6725 28.4696 27.0711 27.0711C28.4696 25.6725 29.422 23.8907 29.8078 21.9509C30.1937 20.0111 29.9957 18.0004 29.2388 16.1732C28.4819 14.3459 27.2002 12.7841 25.5557 11.6853Z" fill="#3B82F6"/>
<path fill-rule="evenodd" clip-rule="evenodd" d="M9.5 1C9.5 2.11624 9.28015 3.22155 8.85298 4.25281C8.42581 5.28408 7.79971 6.22111 7.01041 7.01041C6.22111 7.79971 5.28408 8.42581 4.25281 8.85298C3.22154 9.28014 2.11623 9.5 1 9.5L1 18C3.23247 18 5.44308 17.5603 7.50563 16.706C9.56817 15.8516 11.4422 14.5994 13.0208 13.0208C14.5994 11.4423 15.8516 9.56817 16.706 7.50562C17.5603 5.44308 18 3.23247 18 1L9.5 1Z" fill="#F87171"/>
</g>
<path d="M65.904 19.416C67.7813 20.5253 68.72 22.2 68.72 24.44C68.72 26.424 68.0373 28.0133 66.672 29.208C65.3067 30.4027 63.4827 31 61.2 31H51.76V8.6H60.592C62.832 8.6 64.624 9.176 65.968 10.328C67.312 11.4587 67.984 13.0053 67.984 14.968C67.984 16.8453 67.2907 18.328 65.904 19.416ZM60.432 13.72H57.488V17.24H60.432C60.944 17.24 61.3707 17.0907 61.712 16.792C62.0747 16.472 62.256 16.0347 62.256 15.48C62.256 14.9467 62.0853 14.52 61.744 14.2C61.4027 13.88 60.9653 13.72 60.432 13.72ZM61.04 25.88C61.616 25.88 62.0853 25.7093 62.448 25.368C62.8107 25.0053 62.992 24.5467 62.992 23.992C62.992 23.416 62.8107 22.9573 62.448 22.616C62.0853 22.2747 61.616 22.104 61.04 22.104H57.488V25.88H61.04ZM123.907 31H117.955L113.411 24.184V31H108.099V8.6H113.411V21.688L117.539 15H123.683L118.307 23L123.907 31ZM129.562 19.672C129.562 19.9707 129.828 20.216 130.362 20.408C130.916 20.6 131.578 20.7813 132.345 20.952C133.135 21.1227 133.914 21.368 134.682 21.688C135.471 21.9867 136.132 22.5093 136.666 23.256C137.22 24.0027 137.498 24.9413 137.498 26.072C137.498 27.9067 136.815 29.2613 135.45 30.136C134.084 31.0107 132.463 31.448 130.586 31.448C127.002 31.448 124.612 30.1787 123.418 27.64L128.058 25.304C128.463 26.4773 129.295 27.064 130.554 27.064C131.514 27.064 131.994 26.776 131.994 26.2C131.994 25.9013 131.727 25.656 131.194 25.464C130.66 25.272 130.01 25.08 129.242 24.888C128.474 24.696 127.706 24.44 126.938 24.12C126.17 23.8 125.519 23.288 124.986 22.584C124.452 21.8587 124.186 20.9733 124.186 19.928C124.186 18.2213 124.815 16.8987 126.074 15.96C127.332 15.0213 128.847 14.552 130.618 14.552C133.775 14.552 135.972 15.7893 137.21 18.264L132.73 20.28C132.26 19.3627 131.599 18.904 130.746 18.904C129.956 18.904 129.562 19.16 129.562 19.672Z" fill="#3B82F6"/>
<path d="M78.562 31.448C76.194 31.448 74.178 30.6373 72.514 29.016C70.85 27.3733 70.018 25.368 70.018 23C70.018 20.632 70.85 18.6373 72.514 17.016C74.178 15.3733 76.194 14.552 78.562 14.552C80.9513 14.552 82.9673 15.3733 84.61 17.016C86.274 18.6373 87.106 20.632 87.106 23C87.106 25.368 86.274 27.3733 84.61 29.016C82.9673 30.6373 80.9513 31.448 78.562 31.448ZM78.562 26.328C79.5007 26.328 80.2687 26.0187 80.866 25.4C81.4847 24.7813 81.794 23.9813 81.794 23C81.794 22.0187 81.4847 21.2187 80.866 20.6C80.2687 19.9813 79.5007 19.672 78.562 19.672C77.6447 19.672 76.8767 19.9813 76.258 20.6C75.6607 21.2187 75.362 22.0187 75.362 23C75.362 23.9813 75.6607 24.7813 76.258 25.4C76.8767 26.0187 77.6447 26.328 78.562 26.328ZM97.2183 31.448C94.8503 31.448 92.8343 30.6373 91.1703 29.016C89.5063 27.3733 88.6743 25.368 88.6743 23C88.6743 20.632 89.5063 18.6373 91.1703 17.016C92.8343 15.3733 94.8503 14.552 97.2183 14.552C99.6076 14.552 101.624 15.3733 103.266 17.016C104.93 18.6373 105.762 20.632 105.762 23C105.762 25.368 104.93 27.3733 103.266 29.016C101.624 30.6373 99.6076 31.448 97.2183 31.448ZM97.2183 26.328C98.1569 26.328 98.9249 26.0187 99.5223 25.4C100.141 24.7813 100.45 23.9813 100.45 23C100.45 22.0187 100.141 21.2187 99.5223 20.6C98.9249 19.9813 98.1569 19.672 97.2183 19.672C96.3009 19.672 95.5329 19.9813 94.9143 20.6C94.3169 21.2187 94.0183 22.0187 94.0183 23C94.0183 23.9813 94.3169 24.7813 94.9143 25.4C95.5329 26.0187 96.3009 26.328 97.2183 26.328Z" fill="#F87171"/>
</g>
<defs>
<clipPath id="clip0_29_1011">
<rect width="139" height="40" fill="white"/>
</clipPath>
<clipPath id="clip1_29_1011">
<rect width="40" height="40" fill="white"/>
</clipPath>
</defs>
</svg>
