<svg width="16" height="17" viewBox="0 0 16 17" fill="none" xmlns="http://www.w3.org/2000/svg">
<path d="M10.176 5.43597L6.744 8.87597L5.424 7.55597C5.35228 7.47222 5.26403 7.4042 5.16478 7.35619C5.06553 7.30817 4.95742 7.28118 4.84725 7.27693C4.73707 7.27267 4.6272 7.29124 4.52454 7.33146C4.42188 7.37168 4.32865 7.43268 4.25068 7.51065C4.17272 7.58861 4.11171 7.68185 4.07149 7.78451C4.03127 7.88717 4.01271 7.99703 4.01696 8.10721C4.02122 8.21738 4.0482 8.32549 4.09622 8.42474C4.14424 8.52399 4.21226 8.61225 4.296 8.68397L6.176 10.572C6.25075 10.6461 6.33941 10.7048 6.43688 10.7446C6.53435 10.7844 6.63872 10.8046 6.744 10.804C6.95387 10.8031 7.15499 10.7198 7.304 10.572L11.304 6.57197C11.379 6.4976 11.4385 6.40912 11.4791 6.31163C11.5197 6.21414 11.5406 6.10958 11.5406 6.00397C11.5406 5.89836 11.5197 5.79379 11.4791 5.69631C11.4385 5.59882 11.379 5.51034 11.304 5.43597C11.1541 5.28697 10.9514 5.20333 10.74 5.20333C10.5287 5.20333 10.3259 5.28697 10.176 5.43597ZM8 0.00396729C6.41775 0.00396729 4.87103 0.473159 3.55544 1.35221C2.23985 2.23126 1.21447 3.48069 0.608967 4.9425C0.00346627 6.40431 -0.15496 8.01284 0.153721 9.56469C0.462403 11.1165 1.22433 12.542 2.34315 13.6608C3.46197 14.7796 4.88743 15.5416 6.43928 15.8502C7.99113 16.1589 9.59966 16.0005 11.0615 15.395C12.5233 14.7895 13.7727 13.7641 14.6518 12.4485C15.5308 11.1329 16 9.58622 16 8.00397C16 6.95339 15.7931 5.9131 15.391 4.9425C14.989 3.97189 14.3997 3.08998 13.6569 2.34711C12.914 1.60424 12.0321 1.01497 11.0615 0.612931C10.0909 0.210893 9.05058 0.00396729 8 0.00396729ZM8 14.404C6.7342 14.404 5.49683 14.0286 4.44435 13.3254C3.39188 12.6221 2.57158 11.6226 2.08717 10.4531C1.60277 9.28369 1.47603 7.99687 1.72298 6.75539C1.96992 5.51391 2.57946 4.37354 3.47452 3.47848C4.36958 2.58343 5.50995 1.97389 6.75142 1.72694C7.9929 1.48 9.27973 1.60674 10.4492 2.09114C11.6186 2.57554 12.6182 3.39584 13.3214 4.44832C14.0246 5.50079 14.4 6.73817 14.4 8.00397C14.4 9.70135 13.7257 11.3292 12.5255 12.5294C11.3253 13.7297 9.69739 14.404 8 14.404Z" fill="#3B82F6"/>
</svg>
