<svg width="23" height="22" viewBox="0 0 23 22" fill="none" xmlns="http://www.w3.org/2000/svg">
<path d="M21.5 16H1.5C1.23478 16 0.98043 16.1054 0.792893 16.2929C0.605357 16.4804 0.5 16.7348 0.5 17C0.5 17.2652 0.605357 17.5196 0.792893 17.7071C0.98043 17.8946 1.23478 18 1.5 18H21.5C21.7652 18 22.0196 17.8946 22.2071 17.7071C22.3946 17.5196 22.5 17.2652 22.5 17C22.5 16.7348 22.3946 16.4804 22.2071 16.2929C22.0196 16.1054 21.7652 16 21.5 16ZM21.5 20H1.5C1.23478 20 0.98043 20.1054 0.792893 20.2929C0.605357 20.4804 0.5 20.7348 0.5 21C0.5 21.2652 0.605357 21.5196 0.792893 21.7071C0.98043 21.8946 1.23478 22 1.5 22H21.5C21.7652 22 22.0196 21.8946 22.2071 21.7071C22.3946 21.5196 22.5 21.2652 22.5 21C22.5 20.7348 22.3946 20.4804 22.2071 20.2929C22.0196 20.1054 21.7652 20 21.5 20ZM5.5 6C5.30222 6 5.10888 6.05865 4.94443 6.16853C4.77998 6.27841 4.65181 6.43459 4.57612 6.61732C4.50043 6.80004 4.48063 7.00111 4.51921 7.19509C4.5578 7.38907 4.65304 7.56725 4.79289 7.70711C4.93275 7.84696 5.11093 7.9422 5.30491 7.98079C5.49889 8.01937 5.69996 7.99957 5.88268 7.92388C6.06541 7.84819 6.22159 7.72002 6.33147 7.55557C6.44135 7.39112 6.5 7.19778 6.5 7C6.5 6.73478 6.39464 6.48043 6.20711 6.29289C6.01957 6.10536 5.76522 6 5.5 6ZM19.5 0H3.5C2.70435 0 1.94129 0.31607 1.37868 0.87868C0.81607 1.44129 0.5 2.20435 0.5 3V11C0.5 11.7956 0.81607 12.5587 1.37868 13.1213C1.94129 13.6839 2.70435 14 3.5 14H19.5C20.2956 14 21.0587 13.6839 21.6213 13.1213C22.1839 12.5587 22.5 11.7956 22.5 11V3C22.5 2.20435 22.1839 1.44129 21.6213 0.87868C21.0587 0.31607 20.2956 0 19.5 0ZM20.5 11C20.5 11.2652 20.3946 11.5196 20.2071 11.7071C20.0196 11.8946 19.7652 12 19.5 12H3.5C3.23478 12 2.98043 11.8946 2.79289 11.7071C2.60536 11.5196 2.5 11.2652 2.5 11V3C2.5 2.73478 2.60536 2.48043 2.79289 2.29289C2.98043 2.10536 3.23478 2 3.5 2H19.5C19.7652 2 20.0196 2.10536 20.2071 2.29289C20.3946 2.48043 20.5 2.73478 20.5 3V11ZM11.5 4C10.9067 4 10.3266 4.17595 9.83329 4.50559C9.33994 4.83524 8.95542 5.30377 8.72836 5.85195C8.5013 6.40013 8.44189 7.00333 8.55764 7.58527C8.6734 8.16721 8.95912 8.70176 9.37868 9.12132C9.79824 9.54088 10.3328 9.8266 10.9147 9.94236C11.4967 10.0581 12.0999 9.9987 12.6481 9.77164C13.1962 9.54458 13.6648 9.16006 13.9944 8.66671C14.3241 8.17336 14.5 7.59334 14.5 7C14.5 6.20435 14.1839 5.44129 13.6213 4.87868C13.0587 4.31607 12.2956 4 11.5 4ZM11.5 8C11.3022 8 11.1089 7.94135 10.9444 7.83147C10.78 7.72159 10.6518 7.56541 10.5761 7.38268C10.5004 7.19996 10.4806 6.99889 10.5192 6.80491C10.5578 6.61093 10.653 6.43275 10.7929 6.29289C10.9327 6.15304 11.1109 6.0578 11.3049 6.01921C11.4989 5.98063 11.7 6.00043 11.8827 6.07612C12.0654 6.15181 12.2216 6.27998 12.3315 6.44443C12.4414 6.60888 12.5 6.80222 12.5 7C12.5 7.26522 12.3946 7.51957 12.2071 7.70711C12.0196 7.89464 11.7652 8 11.5 8ZM17.5 6C17.3022 6 17.1089 6.05865 16.9444 6.16853C16.78 6.27841 16.6518 6.43459 16.5761 6.61732C16.5004 6.80004 16.4806 7.00111 16.5192 7.19509C16.5578 7.38907 16.653 7.56725 16.7929 7.70711C16.9327 7.84696 17.1109 7.9422 17.3049 7.98079C17.4989 8.01937 17.7 7.99957 17.8827 7.92388C18.0654 7.84819 18.2216 7.72002 18.3315 7.55557C18.4414 7.39112 18.5 7.19778 18.5 7C18.5 6.73478 18.3946 6.48043 18.2071 6.29289C18.0196 6.10536 17.7652 6 17.5 6Z" fill="#F9FAFB"/>
</svg>
