<svg width="21" height="22" viewBox="0 0 21 22" fill="none" xmlns="http://www.w3.org/2000/svg">
<path d="M9.93433 5.07909C10.2851 5.02532 10.6395 4.99857 10.9943 4.99909C14.1743 4.99909 17.1643 7.28909 18.9043 10.9991C18.6382 11.5637 18.3376 12.1114 18.0043 12.6391C17.8985 12.8029 17.8429 12.9941 17.8443 13.1891C17.8466 13.4073 17.9201 13.6188 18.0538 13.7914C18.1875 13.9639 18.3739 14.0879 18.5847 14.1446C18.7954 14.2013 19.019 14.1874 19.2211 14.1052C19.4233 14.0229 19.593 13.8768 19.7043 13.6891C20.1703 12.957 20.575 12.1877 20.9143 11.3891C20.968 11.2643 20.9956 11.1299 20.9956 10.9941C20.9956 10.8583 20.968 10.7239 20.9143 10.5991C18.8943 5.90909 15.0943 2.99909 10.9943 2.99909C10.525 2.99672 10.0564 3.03689 9.59433 3.11909C9.463 3.14141 9.33737 3.18938 9.22458 3.26026C9.1118 3.33114 9.01408 3.42354 8.93701 3.53219C8.85994 3.64083 8.80502 3.76359 8.77539 3.89346C8.74576 4.02333 8.742 4.15776 8.76433 4.28909C8.78665 4.42041 8.83462 4.54605 8.9055 4.65883C8.97638 4.77161 9.06878 4.86933 9.17743 4.9464C9.28607 5.02347 9.40883 5.07839 9.5387 5.10802C9.66857 5.13765 9.803 5.14141 9.93433 5.11909V5.07909ZM2.70433 1.28909C2.61109 1.19585 2.5004 1.12189 2.37858 1.07143C2.25675 1.02097 2.12619 0.994995 1.99433 0.994995C1.86247 0.994995 1.7319 1.02097 1.61008 1.07143C1.48825 1.12189 1.37756 1.19585 1.28433 1.28909C1.09602 1.47739 0.990234 1.73279 0.990234 1.99909C0.990234 2.26539 1.09602 2.52078 1.28433 2.70909L4.38433 5.79909C2.9699 7.16062 1.84418 8.79307 1.07433 10.5991C1.01926 10.7253 0.990841 10.8614 0.990841 10.9991C0.990841 11.1367 1.01926 11.2729 1.07433 11.3991C3.09433 16.0891 6.89433 18.9991 10.9943 18.9991C12.7914 18.9867 14.5461 18.4516 16.0443 17.4591L19.2843 20.7091C19.3773 20.8028 19.4879 20.8772 19.6097 20.928C19.7316 20.9787 19.8623 21.0049 19.9943 21.0049C20.1263 21.0049 20.257 20.9787 20.3789 20.928C20.5008 20.8772 20.6114 20.8028 20.7043 20.7091C20.7981 20.6161 20.8724 20.5055 20.9232 20.3837C20.974 20.2618 21.0001 20.1311 21.0001 19.9991C21.0001 19.8671 20.974 19.7364 20.9232 19.6145C20.8724 19.4927 20.7981 19.382 20.7043 19.2891L2.70433 1.28909ZM9.06433 10.4791L11.5143 12.9291C11.3453 12.9776 11.1701 13.0011 10.9943 12.9991C10.4639 12.9991 9.95518 12.7884 9.58011 12.4133C9.20504 12.0382 8.99433 11.5295 8.99433 10.9991C8.99228 10.8233 9.01586 10.6481 9.06433 10.4791ZM10.9943 16.9991C7.81433 16.9991 4.82433 14.7091 3.09433 10.9991C3.74041 9.57283 4.6574 8.28566 5.79433 7.20909L7.56433 8.99909C7.14857 9.75788 6.99007 10.631 7.11258 11.4875C7.2351 12.3441 7.63204 13.1377 8.24385 13.7496C8.85566 14.3614 9.64936 14.7583 10.5059 14.8808C11.3624 15.0033 12.2355 14.8448 12.9943 14.4291L14.5843 15.9991C13.4954 16.64 12.2578 16.9847 10.9943 16.9991Z" fill="#4B5563"/>
</svg>
