<svg width="21" height="22" viewBox="0 0 21 22" fill="none" xmlns="http://www.w3.org/2000/svg">
<path d="M19.0035 3.41029L19.7135 2.71029C19.9018 2.52199 20.0076 2.26659 20.0076 2.00029C20.0076 1.73399 19.9018 1.4786 19.7135 1.29029C19.5252 1.10199 19.2698 0.996201 19.0035 0.996201C18.7372 0.996201 18.4818 1.10199 18.2935 1.29029L16.8935 2.70029L14.0635 5.53029L7.75351 11.8303C6.71955 11.1481 5.46918 10.8741 4.24468 11.0612C3.02018 11.2483 1.90873 11.8833 1.1257 12.8431C0.342668 13.803 -0.0561973 15.0193 0.0063911 16.2564C0.0689795 17.4936 0.588566 18.6634 1.46447 19.5393C2.34038 20.4152 3.51024 20.9348 4.74737 20.9974C5.98451 21.06 7.20083 20.6611 8.16066 19.8781C9.1205 19.0951 9.7555 17.9836 9.94262 16.7591C10.1298 15.5346 9.85568 14.2843 9.17351 13.2503L14.7635 7.65029L16.8835 9.78029C16.9768 9.87287 17.0873 9.94619 17.2089 9.99604C17.3305 10.0459 17.4607 10.0713 17.5921 10.0708C17.7234 10.0704 17.8535 10.044 17.9747 9.99333C18.0959 9.94262 18.2059 9.86853 18.2985 9.77529C18.3911 9.68205 18.4644 9.57149 18.5143 9.44992C18.5641 9.32835 18.5895 9.19815 18.5891 9.06676C18.5886 8.93536 18.5623 8.80534 18.5116 8.68413C18.4608 8.56291 18.3868 8.45287 18.2935 8.36029L16.1735 6.24029L17.5935 4.83029L18.2935 5.53029C18.3861 5.62353 18.4961 5.69762 18.6174 5.74833C18.7386 5.79904 18.8686 5.82538 19 5.82585C19.1314 5.82631 19.2616 5.80089 19.3831 5.75104C19.5047 5.70118 19.6153 5.62787 19.7085 5.53529C19.8018 5.44271 19.8758 5.33267 19.9266 5.21145C19.9773 5.09024 20.0036 4.96022 20.0041 4.82883C20.0045 4.69743 19.9791 4.56723 19.9293 4.44566C19.8794 4.32409 19.8061 4.21353 19.7135 4.12029L19.0035 3.41029ZM5.00351 19.0003C4.41017 19.0003 3.83015 18.8243 3.3368 18.4947C2.84346 18.1651 2.45894 17.6965 2.23188 17.1483C2.00481 16.6002 1.9454 15.997 2.06116 15.415C2.17691 14.8331 2.46264 14.2985 2.88219 13.879C3.30175 13.4594 3.8363 13.1737 4.41824 13.0579C5.00019 12.9422 5.60339 13.0016 6.15156 13.2287C6.69974 13.4557 7.16828 13.8402 7.49792 14.3336C7.82757 14.8269 8.00351 15.4069 8.00351 16.0003C8.00351 16.7959 7.68744 17.559 7.12484 18.1216C6.56223 18.6842 5.79916 19.0003 5.00351 19.0003Z" fill="#F9FAFB"/>
</svg>
