<svg width="16" height="16" viewBox="0 0 16 16" fill="none" xmlns="http://www.w3.org/2000/svg">
<path d="M6.4 4C6.18783 4 5.98435 4.08429 5.83432 4.23431C5.68429 4.38434 5.6 4.58783 5.6 4.8V11.2C5.6 11.4122 5.68429 11.6157 5.83432 11.7657C5.98435 11.9157 6.18783 12 6.4 12C6.61218 12 6.81566 11.9157 6.96569 11.7657C7.11572 11.6157 7.2 11.4122 7.2 11.2V4.8C7.2 4.58783 7.11572 4.38434 6.96569 4.23431C6.81566 4.08429 6.61218 4 6.4 4ZM8 0C6.41775 0 4.87103 0.469192 3.55544 1.34824C2.23985 2.22729 1.21447 3.47672 0.608967 4.93853C0.00346627 6.40034 -0.15496 8.00887 0.153721 9.56072C0.462403 11.1126 1.22433 12.538 2.34315 13.6569C3.46197 14.7757 4.88743 15.5376 6.43928 15.8463C7.99113 16.155 9.59966 15.9965 11.0615 15.391C12.5233 14.7855 13.7727 13.7602 14.6518 12.4446C15.5308 11.129 16 9.58225 16 8C16 6.94942 15.7931 5.90914 15.391 4.93853C14.989 3.96793 14.3997 3.08601 13.6569 2.34315C12.914 1.60028 12.0321 1.011 11.0615 0.608964C10.0909 0.206926 9.05058 0 8 0ZM8 14.4C6.7342 14.4 5.49683 14.0246 4.44435 13.3214C3.39188 12.6182 2.57158 11.6186 2.08717 10.4492C1.60277 9.27973 1.47603 7.9929 1.72298 6.75142C1.96992 5.50994 2.57946 4.36957 3.47452 3.47452C4.36958 2.57946 5.50995 1.96992 6.75142 1.72297C7.9929 1.47603 9.27973 1.60277 10.4492 2.08717C11.6186 2.57157 12.6182 3.39188 13.3214 4.44435C14.0246 5.49682 14.4 6.7342 14.4 8C14.4 9.69738 13.7257 11.3252 12.5255 12.5255C11.3253 13.7257 9.69739 14.4 8 14.4ZM9.6 4C9.38783 4 9.18435 4.08429 9.03432 4.23431C8.88429 4.38434 8.8 4.58783 8.8 4.8V11.2C8.8 11.4122 8.88429 11.6157 9.03432 11.7657C9.18435 11.9157 9.38783 12 9.6 12C9.81217 12 10.0157 11.9157 10.1657 11.7657C10.3157 11.6157 10.4 11.4122 10.4 11.2V4.8C10.4 4.58783 10.3157 4.38434 10.1657 4.23431C10.0157 4.08429 9.81217 4 9.6 4Z" fill="#F9FAFB"/>
</svg>
