<svg width="16" height="16" viewBox="0 0 16 16" fill="none" xmlns="http://www.w3.org/2000/svg">
<path d="M11.2 6.616L7.2 4.304C6.95689 4.16364 6.68113 4.08971 6.40041 4.08964C6.11969 4.08957 5.84389 4.16335 5.60071 4.30359C5.35753 4.44382 5.15552 4.64557 5.01498 4.88857C4.87443 5.13158 4.80029 5.40728 4.8 5.688V10.312C4.80029 10.5926 4.87436 10.8681 5.01477 11.1111C5.15519 11.354 5.35701 11.5557 5.6 11.696C5.84323 11.8364 6.11914 11.9104 6.4 11.9104C6.68086 11.9104 6.95677 11.8364 7.2 11.696L11.2 9.384C11.4425 9.24335 11.6437 9.04147 11.7836 8.79858C11.9235 8.55569 11.9972 8.2803 11.9972 8C11.9972 7.71969 11.9235 7.44431 11.7836 7.20142C11.6437 6.95852 11.4425 6.75665 11.2 6.616V6.616ZM10.4 8L6.4 10.312V5.688L10.4 8ZM8 0C6.41775 0 4.87103 0.469192 3.55544 1.34824C2.23985 2.22729 1.21447 3.47672 0.608967 4.93853C0.00346627 6.40034 -0.15496 8.00887 0.153721 9.56072C0.462403 11.1126 1.22433 12.538 2.34315 13.6569C3.46197 14.7757 4.88743 15.5376 6.43928 15.8463C7.99113 16.155 9.59966 15.9965 11.0615 15.391C12.5233 14.7855 13.7727 13.7602 14.6518 12.4446C15.5308 11.129 16 9.58225 16 8C16 6.94942 15.7931 5.90914 15.391 4.93853C14.989 3.96793 14.3997 3.08601 13.6569 2.34315C12.914 1.60028 12.0321 1.011 11.0615 0.608964C10.0909 0.206926 9.05058 0 8 0V0ZM8 14.4C6.7342 14.4 5.49683 14.0246 4.44435 13.3214C3.39188 12.6182 2.57158 11.6186 2.08717 10.4492C1.60277 9.27972 1.47603 7.9929 1.72298 6.75142C1.96992 5.50994 2.57946 4.36957 3.47452 3.47452C4.36958 2.57946 5.50995 1.96992 6.75142 1.72297C7.9929 1.47603 9.27973 1.60277 10.4492 2.08717C11.6186 2.57157 12.6182 3.39187 13.3214 4.44435C14.0246 5.49682 14.4 6.7342 14.4 8C14.4 9.69738 13.7257 11.3252 12.5255 12.5255C11.3253 13.7257 9.69739 14.4 8 14.4V14.4Z" fill="#F9FAFB"/>
</svg>
