<svg width="16" height="16" viewBox="0 0 16 16" fill="none" xmlns="http://www.w3.org/2000/svg">
<path fill-rule="evenodd" clip-rule="evenodd" d="M15.9732 6.05235C15.9227 5.89931 15.8309 5.7649 15.709 5.6654C15.587 5.5659 15.4401 5.5056 15.2861 5.4918L10.7403 4.79739L8.70306 0.471957C8.63764 0.330506 8.5355 0.211212 8.40833 0.127741C8.28117 0.044271 8.13412 0 7.98404 0C7.83396 0 7.68691 0.044271 7.55974 0.127741C7.43258 0.211212 7.33044 0.330506 7.26502 0.471957L5.22779 4.78902L0.681976 5.4918C0.534115 5.5138 0.395106 5.57878 0.280722 5.67934C0.166339 5.7799 0.0811611 5.91202 0.0348562 6.06071C-0.00753011 6.20602 -0.0113335 6.36066 0.0238537 6.50806C0.0590409 6.65545 0.13189 6.79003 0.234584 6.89735L3.53409 10.2439L2.73518 14.996C2.70666 15.1529 2.7216 15.315 2.77822 15.4632C2.83485 15.6115 2.9308 15.7397 3.05475 15.8327C3.17556 15.9231 3.31805 15.9765 3.46623 15.9868C3.6144 15.9972 3.7624 15.9641 3.8936 15.8912L7.98404 13.6574L12.0585 15.8996C12.1706 15.9658 12.2973 16.0004 12.426 16C12.5952 16.0006 12.7603 15.945 12.8974 15.841C13.0213 15.7481 13.1173 15.6199 13.1739 15.4716C13.2305 15.3234 13.2454 15.1612 13.2169 15.0044L12.418 10.2523L15.7175 6.90572C15.8329 6.80338 15.9181 6.66887 15.9634 6.51781C16.0086 6.36675 16.012 6.20535 15.9732 6.05235Z" fill="#4B5563"/>
</svg>
