<svg width="97" height="16" viewBox="0 0 97 16" fill="none" xmlns="http://www.w3.org/2000/svg">
<g clip-path="url(#clip0_47_973)">
<path d="M11.8099 9.39891C11.7162 9.49381 11.6461 9.61128 11.6057 9.74107C11.5653 9.87086 11.5558 10.009 11.5782 10.1435L12.1534 13.649L9.14947 11.9758C9.03388 11.9113 8.90494 11.8776 8.77398 11.8776C8.64303 11.8776 8.51408 11.9113 8.39849 11.9758L5.39458 13.649L5.9698 10.1435C5.99212 10.009 5.98267 9.87086 5.94229 9.74107C5.9019 9.61128 5.83181 9.49381 5.73811 9.39891L3.34138 6.88899L6.7048 6.37864C6.83422 6.35978 6.95725 6.30797 7.06311 6.22775C7.16897 6.14752 7.25442 6.04133 7.31197 5.91848L8.73404 2.73088L10.236 5.92685C10.2935 6.0497 10.379 6.15589 10.4849 6.23612C10.5907 6.31634 10.7137 6.36815 10.8432 6.387L14.2066 6.89735L11.8099 9.39891Z" fill="#FBBF24"/>
<path fill-rule="evenodd" clip-rule="evenodd" d="M16.7232 6.05235C16.6727 5.89931 16.5809 5.7649 16.459 5.6654C16.337 5.5659 16.1901 5.5056 16.0361 5.4918L11.4903 4.79739L9.45306 0.471957C9.38764 0.330505 9.2855 0.211211 9.15833 0.127741C9.03116 0.0442708 8.88412 0 8.73404 0C8.58396 0 8.43691 0.0442708 8.30974 0.127741C8.18258 0.211211 8.08043 0.330505 8.01502 0.471957L5.97779 4.78902L1.43198 5.4918C1.28411 5.51381 1.14511 5.57878 1.03072 5.67934C0.916338 5.7799 0.831161 5.91202 0.784856 6.06071C0.74247 6.20602 0.738666 6.36066 0.773854 6.50806C0.809041 6.65545 0.88189 6.79003 0.984585 6.89735L4.28409 10.2439L3.48518 14.996C3.45666 15.1529 3.47159 15.315 3.52822 15.4632C3.58485 15.6115 3.6808 15.7397 3.80475 15.8327C3.92556 15.9231 4.06805 15.9765 4.21622 15.9868C4.3644 15.9972 4.5124 15.9641 4.6436 15.8912L8.73404 13.6574L12.8085 15.8996C12.9206 15.9658 13.0473 16.0004 13.176 16C13.3452 16.0006 13.5103 15.945 13.6473 15.841C13.7713 15.7481 13.8672 15.6199 13.9239 15.4716C13.9805 15.3234 13.9954 15.1612 13.9669 15.0044L13.168 10.2523L16.4675 6.90572C16.5829 6.80338 16.6681 6.66887 16.7134 6.51781C16.7586 6.36675 16.762 6.20535 16.7232 6.05235ZM11.6057 9.74107C11.6461 9.61128 11.7162 9.49381 11.8099 9.39891L14.2066 6.89735L10.8432 6.387C10.7137 6.36815 10.5907 6.31634 10.4849 6.23612C10.379 6.15589 10.2935 6.0497 10.236 5.92685L8.73404 2.73088L7.31197 5.91848C7.25442 6.04133 7.16897 6.14752 7.06311 6.22775C6.95725 6.30797 6.83422 6.35978 6.7048 6.37864L3.34138 6.88899L5.73811 9.39891C5.83181 9.49381 5.9019 9.61128 5.94229 9.74107C5.98267 9.87086 5.99212 10.009 5.9698 10.1435L5.39458 13.649L8.39849 11.9758C8.51408 11.9113 8.64303 11.8776 8.77398 11.8776C8.90494 11.8776 9.03388 11.9113 9.14947 11.9758L12.1534 13.649L11.5782 10.1435C11.5558 10.009 11.5653 9.87086 11.6057 9.74107Z" fill="#FBBF24"/>
<path d="M31.8099 9.39891C31.7162 9.49381 31.6461 9.61128 31.6057 9.74107C31.5653 9.87086 31.5558 10.009 31.5782 10.1435L32.1534 13.649L29.1495 11.9758C29.0339 11.9113 28.9049 11.8776 28.774 11.8776C28.643 11.8776 28.5141 11.9113 28.3985 11.9758L25.3946 13.649L25.9698 10.1435C25.9921 10.009 25.9827 9.87086 25.9423 9.74107C25.9019 9.61128 25.8318 9.49381 25.7381 9.39891L23.3414 6.88899L26.7048 6.37864C26.8342 6.35978 26.9573 6.30797 27.0631 6.22775C27.169 6.14752 27.2544 6.04133 27.312 5.91848L28.734 2.73088L30.236 5.92685C30.2935 6.0497 30.379 6.15589 30.4849 6.23612C30.5907 6.31634 30.7137 6.36815 30.8432 6.387L34.2066 6.89735L31.8099 9.39891Z" fill="#FBBF24"/>
<path fill-rule="evenodd" clip-rule="evenodd" d="M36.7232 6.05235C36.6727 5.89931 36.5809 5.7649 36.459 5.6654C36.337 5.5659 36.1901 5.5056 36.0361 5.4918L31.4903 4.79739L29.4531 0.471957C29.3876 0.330505 29.2855 0.211211 29.1583 0.127741C29.0312 0.0442708 28.8841 0 28.734 0C28.584 0 28.4369 0.0442708 28.3097 0.127741C28.1826 0.211211 28.0804 0.330505 28.015 0.471957L25.9778 4.78902L21.432 5.4918C21.2841 5.51381 21.1451 5.57878 21.0307 5.67934C20.9163 5.7799 20.8312 5.91202 20.7849 6.06071C20.7425 6.20602 20.7387 6.36066 20.7739 6.50806C20.809 6.65545 20.8819 6.79003 20.9846 6.89735L24.2841 10.2439L23.4852 14.996C23.4567 15.1529 23.4716 15.315 23.5282 15.4632C23.5848 15.6115 23.6808 15.7397 23.8047 15.8327C23.9256 15.9231 24.068 15.9765 24.2162 15.9868C24.3644 15.9972 24.5124 15.9641 24.6436 15.8912L28.734 13.6574L32.8085 15.8996C32.9206 15.9658 33.0473 16.0004 33.176 16C33.3452 16.0006 33.5103 15.945 33.6473 15.841C33.7713 15.7481 33.8672 15.6199 33.9239 15.4716C33.9805 15.3234 33.9954 15.1612 33.9669 15.0044L33.168 10.2523L36.4675 6.90572C36.5829 6.80338 36.6681 6.66887 36.7134 6.51781C36.7586 6.36675 36.762 6.20535 36.7232 6.05235ZM31.6057 9.74107C31.6461 9.61128 31.7162 9.49381 31.8099 9.39891L34.2066 6.89735L30.8432 6.387C30.7137 6.36815 30.5907 6.31634 30.4849 6.23612C30.379 6.15589 30.2935 6.0497 30.236 5.92685L28.734 2.73088L27.312 5.91848C27.2544 6.04133 27.169 6.14752 27.0631 6.22775C26.9573 6.30797 26.8342 6.35978 26.7048 6.37864L23.3414 6.88899L25.7381 9.39891C25.8318 9.49381 25.9019 9.61128 25.9423 9.74107C25.9827 9.87086 25.9921 10.009 25.9698 10.1435L25.3946 13.649L28.3985 11.9758C28.5141 11.9113 28.643 11.8776 28.774 11.8776C28.9049 11.8776 29.0339 11.9113 29.1495 11.9758L32.1534 13.649L31.5782 10.1435C31.5558 10.009 31.5653 9.87086 31.6057 9.74107Z" fill="#FBBF24"/>
<path d="M51.8099 9.39891C51.7162 9.49381 51.6461 9.61128 51.6057 9.74107C51.5653 9.87086 51.5558 10.009 51.5782 10.1435L52.1534 13.649L49.1495 11.9758C49.0339 11.9113 48.9049 11.8776 48.774 11.8776C48.643 11.8776 48.5141 11.9113 48.3985 11.9758L45.3946 13.649L45.9698 10.1435C45.9921 10.009 45.9827 9.87086 45.9423 9.74107C45.9019 9.61128 45.8318 9.49381 45.7381 9.39891L43.3414 6.88899L46.7048 6.37864C46.8342 6.35978 46.9573 6.30797 47.0631 6.22775C47.169 6.14752 47.2544 6.04133 47.312 5.91848L48.734 2.73088L50.236 5.92685C50.2935 6.0497 50.379 6.15589 50.4849 6.23612C50.5907 6.31634 50.7137 6.36815 50.8432 6.387L54.2066 6.89735L51.8099 9.39891Z" fill="#FBBF24"/>
<path fill-rule="evenodd" clip-rule="evenodd" d="M56.7232 6.05235C56.6727 5.89931 56.5809 5.7649 56.459 5.6654C56.337 5.5659 56.1901 5.5056 56.0361 5.4918L51.4903 4.79739L49.4531 0.471957C49.3876 0.330505 49.2855 0.211211 49.1583 0.127741C49.0312 0.0442708 48.8841 0 48.734 0C48.584 0 48.4369 0.0442708 48.3097 0.127741C48.1826 0.211211 48.0804 0.330505 48.015 0.471957L45.9778 4.78902L41.432 5.4918C41.2841 5.51381 41.1451 5.57878 41.0307 5.67934C40.9163 5.7799 40.8312 5.91202 40.7849 6.06071C40.7425 6.20602 40.7387 6.36066 40.7739 6.50806C40.809 6.65545 40.8819 6.79003 40.9846 6.89735L44.2841 10.2439L43.4852 14.996C43.4567 15.1529 43.4716 15.315 43.5282 15.4632C43.5848 15.6115 43.6808 15.7397 43.8047 15.8327C43.9256 15.9231 44.068 15.9765 44.2162 15.9868C44.3644 15.9972 44.5124 15.9641 44.6436 15.8912L48.734 13.6574L52.8085 15.8996C52.9206 15.9658 53.0473 16.0004 53.176 16C53.3452 16.0006 53.5103 15.945 53.6473 15.841C53.7713 15.7481 53.8672 15.6199 53.9239 15.4716C53.9805 15.3234 53.9954 15.1612 53.9669 15.0044L53.168 10.2523L56.4675 6.90572C56.5829 6.80338 56.6681 6.66887 56.7134 6.51781C56.7586 6.36675 56.762 6.20535 56.7232 6.05235ZM51.6057 9.74107C51.6461 9.61128 51.7162 9.49381 51.8099 9.39891L54.2066 6.89735L50.8432 6.387C50.7137 6.36815 50.5907 6.31634 50.4849 6.23612C50.379 6.15589 50.2935 6.0497 50.236 5.92685L48.734 2.73088L47.312 5.91848C47.2544 6.04133 47.169 6.14752 47.0631 6.22775C46.9573 6.30797 46.8342 6.35978 46.7048 6.37864L43.3414 6.88899L45.7381 9.39891C45.8318 9.49381 45.9019 9.61128 45.9423 9.74107C45.9827 9.87086 45.9921 10.009 45.9698 10.1435L45.3946 13.649L48.3985 11.9758C48.5141 11.9113 48.643 11.8776 48.774 11.8776C48.9049 11.8776 49.0339 11.9113 49.1495 11.9758L52.1534 13.649L51.5782 10.1435C51.5558 10.009 51.5653 9.87086 51.6057 9.74107Z" fill="#FBBF24"/>
<path d="M71.8099 9.39891C71.7162 9.49381 71.6461 9.61128 71.6057 9.74107C71.5653 9.87086 71.5558 10.009 71.5782 10.1435L72.1534 13.649L69.1495 11.9758C69.0339 11.9113 68.9049 11.8776 68.774 11.8776C68.643 11.8776 68.5141 11.9113 68.3985 11.9758L65.3946 13.649L65.9698 10.1435C65.9921 10.009 65.9827 9.87086 65.9423 9.74107C65.9019 9.61128 65.8318 9.49381 65.7381 9.39891L63.3414 6.88899L66.7048 6.37864C66.8342 6.35978 66.9573 6.30797 67.0631 6.22775C67.169 6.14752 67.2544 6.04133 67.312 5.91848L68.734 2.73088L70.236 5.92685C70.2935 6.0497 70.379 6.15589 70.4849 6.23612C70.5907 6.31634 70.7137 6.36815 70.8432 6.387L74.2066 6.89735L71.8099 9.39891Z" fill="#FBBF24"/>
<path fill-rule="evenodd" clip-rule="evenodd" d="M76.7232 6.05235C76.6727 5.89931 76.5809 5.7649 76.459 5.6654C76.337 5.5659 76.1901 5.5056 76.0361 5.4918L71.4903 4.79739L69.4531 0.471957C69.3876 0.330505 69.2855 0.211211 69.1583 0.127741C69.0312 0.0442708 68.8841 0 68.734 0C68.584 0 68.4369 0.0442708 68.3097 0.127741C68.1826 0.211211 68.0804 0.330505 68.015 0.471957L65.9778 4.78902L61.432 5.4918C61.2841 5.51381 61.1451 5.57878 61.0307 5.67934C60.9163 5.7799 60.8312 5.91202 60.7849 6.06071C60.7425 6.20602 60.7387 6.36066 60.7739 6.50806C60.809 6.65545 60.8819 6.79003 60.9846 6.89735L64.2841 10.2439L63.4852 14.996C63.4567 15.1529 63.4716 15.315 63.5282 15.4632C63.5848 15.6115 63.6808 15.7397 63.8047 15.8327C63.9256 15.9231 64.068 15.9765 64.2162 15.9868C64.3644 15.9972 64.5124 15.9641 64.6436 15.8912L68.734 13.6574L72.8085 15.8996C72.9206 15.9658 73.0473 16.0004 73.176 16C73.3452 16.0006 73.5103 15.945 73.6473 15.841C73.7713 15.7481 73.8672 15.6199 73.9239 15.4716C73.9805 15.3234 73.9954 15.1612 73.9669 15.0044L73.168 10.2523L76.4675 6.90572C76.5829 6.80338 76.6681 6.66887 76.7134 6.51781C76.7586 6.36675 76.762 6.20535 76.7232 6.05235ZM71.6057 9.74107C71.6461 9.61128 71.7162 9.49381 71.8099 9.39891L74.2066 6.89735L70.8432 6.387C70.7137 6.36815 70.5907 6.31634 70.4849 6.23612C70.379 6.15589 70.2935 6.0497 70.236 5.92685L68.734 2.73088L67.312 5.91848C67.2544 6.04133 67.169 6.14752 67.0631 6.22775C66.9573 6.30797 66.8342 6.35978 66.7048 6.37864L63.3414 6.88899L65.7381 9.39891C65.8318 9.49381 65.9019 9.61128 65.9423 9.74107C65.9827 9.87086 65.9921 10.009 65.9698 10.1435L65.3946 13.649L68.3985 11.9758C68.5141 11.9113 68.643 11.8776 68.774 11.8776C68.9049 11.8776 69.0339 11.9113 69.1495 11.9758L72.1534 13.649L71.5782 10.1435C71.5558 10.009 71.5653 9.87086 71.6057 9.74107Z" fill="#FBBF24"/>
<path d="M91.8099 9.39891C91.7162 9.49381 91.6461 9.61128 91.6057 9.74107C91.5653 9.87086 91.5558 10.009 91.5782 10.1435L92.1534 13.649L89.1495 11.9758C89.0339 11.9113 88.9049 11.8776 88.774 11.8776C88.643 11.8776 88.5141 11.9113 88.3985 11.9758L85.3946 13.649L85.9698 10.1435C85.9921 10.009 85.9827 9.87086 85.9423 9.74107C85.9019 9.61128 85.8318 9.49381 85.7381 9.39891L83.3414 6.88899L86.7048 6.37864C86.8342 6.35978 86.9573 6.30797 87.0631 6.22775C87.169 6.14752 87.2544 6.04133 87.312 5.91848L88.734 2.73088L90.236 5.92685C90.2935 6.0497 90.379 6.15589 90.4849 6.23612C90.5907 6.31634 90.7137 6.36815 90.8432 6.387L94.2066 6.89735L91.8099 9.39891Z" fill="#FBBF24"/>
<path fill-rule="evenodd" clip-rule="evenodd" d="M96.7232 6.05235C96.6727 5.89931 96.5809 5.7649 96.459 5.6654C96.337 5.5659 96.1901 5.5056 96.0361 5.4918L91.4903 4.79739L89.4531 0.471957C89.3876 0.330505 89.2855 0.211211 89.1583 0.127741C89.0312 0.0442708 88.8841 0 88.734 0C88.584 0 88.4369 0.0442708 88.3097 0.127741C88.1826 0.211211 88.0804 0.330505 88.015 0.471957L85.9778 4.78902L81.432 5.4918C81.2841 5.51381 81.1451 5.57878 81.0307 5.67934C80.9163 5.7799 80.8312 5.91202 80.7849 6.06071C80.7425 6.20602 80.7387 6.36066 80.7739 6.50806C80.809 6.65545 80.8819 6.79003 80.9846 6.89735L84.2841 10.2439L83.4852 14.996C83.4567 15.1529 83.4716 15.315 83.5282 15.4632C83.5848 15.6115 83.6808 15.7397 83.8047 15.8327C83.9256 15.9231 84.068 15.9765 84.2162 15.9868C84.3644 15.9972 84.5124 15.9641 84.6436 15.8912L88.734 13.6574L92.8085 15.8996C92.9206 15.9658 93.0473 16.0004 93.176 16C93.3452 16.0006 93.5103 15.945 93.6473 15.841C93.7713 15.7481 93.8672 15.6199 93.9239 15.4716C93.9805 15.3234 93.9954 15.1612 93.9669 15.0044L93.168 10.2523L96.4675 6.90572C96.5829 6.80338 96.6681 6.66887 96.7134 6.51781C96.7586 6.36675 96.762 6.20535 96.7232 6.05235ZM91.6057 9.74107C91.6461 9.61128 91.7162 9.49381 91.8099 9.39891L94.2066 6.89735L90.8432 6.387C90.7137 6.36815 90.5907 6.31634 90.4849 6.23612C90.379 6.15589 90.2935 6.0497 90.236 5.92685L88.734 2.73088L87.312 5.91848C87.2544 6.04133 87.169 6.14752 87.0631 6.22775C86.9573 6.30797 86.8342 6.35978 86.7048 6.37864L83.3414 6.88899L85.7381 9.39891C85.8318 9.49381 85.9019 9.61128 85.9423 9.74107C85.9827 9.87086 85.9921 10.009 85.9698 10.1435L85.3946 13.649L88.3985 11.9758C88.5141 11.9113 88.643 11.8776 88.774 11.8776C88.9049 11.8776 89.0339 11.9113 89.1495 11.9758L92.1534 13.649L91.5782 10.1435C91.5558 10.009 91.5653 9.87086 91.6057 9.74107Z" fill="#FBBF24"/>
</g>
<defs>
<clipPath id="clip0_47_973">
<rect width="96" height="16" fill="white" transform="translate(0.75)"/>
</clipPath>
</defs>
</svg>
