<svg width="16" height="17" viewBox="0 0 16 17" fill="none" xmlns="http://www.w3.org/2000/svg">
<path d="M8 0.0158692C6.41775 0.0158692 4.87103 0.485061 3.55544 1.36411C2.23985 2.24316 1.21447 3.49259 0.608967 4.9544C0.00346631 6.41621 -0.15496 8.02474 0.153721 9.57659C0.462403 11.1284 1.22433 12.5539 2.34315 13.6727C3.46197 14.7915 4.88743 15.5535 6.43928 15.8621C7.99113 16.1708 9.59966 16.0124 11.0615 15.4069C12.5233 14.8014 13.7727 13.776 14.6518 12.4604C15.5308 11.1448 16 9.59812 16 8.01587C16.0001 6.96527 15.7932 5.92494 15.3912 4.9543C14.9892 3.98365 14.3999 3.10171 13.6571 2.35882C12.9142 1.61593 12.0322 1.02666 11.0616 0.624655C10.0909 0.222649 9.0506 0.015782 8 0.0158692ZM10.5436 12.1378C10.5137 12.2125 10.4681 12.2799 10.41 12.3355C10.3519 12.3911 10.2825 12.4337 10.2066 12.4603C10.1307 12.4869 10.05 12.497 9.96985 12.4899C9.88972 12.4828 9.81204 12.4586 9.74201 12.419L7.57027 10.7315L6.17642 12.0175C6.14408 12.0414 6.10624 12.0567 6.0664 12.0622C6.02656 12.0676 5.98599 12.063 5.94842 12.0486L6.21562 9.65785L6.22417 9.66463L6.22963 9.61743C6.22963 9.61743 10.1376 6.05943 10.2968 5.90784C10.458 5.75664 10.4048 5.72384 10.4048 5.72384C10.414 5.53941 10.1156 5.72384 10.1156 5.72384L4.9376 9.05507L2.78121 8.32067C2.78121 8.32067 2.45001 8.20187 2.41881 7.94067C2.38601 7.68147 2.792 7.54067 2.792 7.54067L11.3656 4.13466C11.3656 4.13466 12.0704 3.82064 12.0704 4.34067L10.5436 12.1378Z" fill="#4B5563"/>
</svg>
