<svg width="12" height="10" viewBox="0 0 12 10" fill="none" xmlns="http://www.w3.org/2000/svg">
<path d="M11.5915 1.01225C11.514 0.934139 11.4218 0.872143 11.3203 0.829836C11.2187 0.787529 11.1098 0.765747 10.9998 0.765747C10.8898 0.765747 10.7809 0.787529 10.6793 0.829836C10.5778 0.872143 10.4856 0.934139 10.4081 1.01225L4.1998 7.22891L1.59146 4.61225C1.51103 4.53455 1.41608 4.47345 1.31203 4.43245C1.20798 4.39145 1.09688 4.37134 0.985064 4.37327C0.873247 4.37521 0.762906 4.39915 0.66034 4.44372C0.557775 4.4883 0.464994 4.55264 0.387295 4.63308C0.309597 4.71351 0.248502 4.80847 0.207498 4.91251C0.166495 5.01656 0.146386 5.12766 0.148321 5.23948C0.150255 5.35129 0.174195 5.46164 0.218773 5.5642C0.263351 5.66677 0.327694 5.75955 0.408129 5.83725L3.60813 9.03725C3.6856 9.11535 3.77777 9.17735 3.87932 9.21966C3.98086 9.26196 4.08979 9.28374 4.1998 9.28374C4.30981 9.28374 4.41873 9.26196 4.52028 9.21966C4.62183 9.17735 4.71399 9.11535 4.79146 9.03725L11.5915 2.23725C11.676 2.15921 11.7436 2.0645 11.7897 1.95908C11.8359 1.85367 11.8597 1.73983 11.8597 1.62475C11.8597 1.50966 11.8359 1.39582 11.7897 1.29041C11.7436 1.18499 11.676 1.09028 11.5915 1.01225Z" fill="#F9FAFB"/>
</svg>
