<svg width="20" height="22" viewBox="0 0 20 22" fill="none" xmlns="http://www.w3.org/2000/svg">
<path d="M13.646 11.7098C14.6264 10.9384 15.342 9.88068 15.6933 8.6837C16.0445 7.48672 16.014 6.21002 15.6058 5.03123C15.1977 3.85243 14.4323 2.83015 13.4161 2.10661C12.3999 1.38308 11.1835 0.994263 9.93603 0.994263C8.68858 0.994263 7.47215 1.38308 6.45596 2.10661C5.43978 2.83015 4.67438 3.85243 4.26624 5.03123C3.85811 6.21002 3.82754 7.48672 4.17879 8.6837C4.53004 9.88068 5.24564 10.9384 6.22603 11.7098C4.54611 12.3828 3.08032 13.4991 1.98492 14.9397C0.88953 16.3802 0.205595 18.0911 0.00603184 19.8898C-0.00841357 20.0211 0.00314838 20.154 0.0400573 20.2808C0.0769662 20.4077 0.138499 20.526 0.221143 20.6291C0.388051 20.8372 0.630815 20.9706 0.896032 20.9998C1.16125 21.0289 1.42719 20.9516 1.63536 20.7846C1.84352 20.6177 1.97686 20.375 2.00603 20.1098C2.22562 18.155 3.15772 16.3496 4.62425 15.0386C6.09078 13.7275 7.98893 13.0028 9.95603 13.0028C11.9231 13.0028 13.8213 13.7275 15.2878 15.0386C16.7543 16.3496 17.6864 18.155 17.906 20.1098C17.9332 20.3555 18.0505 20.5824 18.2351 20.7468C18.4198 20.9111 18.6588 21.0013 18.906 20.9998H19.016C19.2782 20.9696 19.5178 20.8371 19.6826 20.631C19.8474 20.425 19.9241 20.1621 19.896 19.8998C19.6955 18.096 19.0079 16.3807 17.9069 14.938C16.8059 13.4952 15.3329 12.3792 13.646 11.7098ZM9.93603 10.9998C9.14491 10.9998 8.37155 10.7652 7.71375 10.3256C7.05595 9.88611 6.54326 9.2614 6.24051 8.53049C5.93776 7.79959 5.85855 6.99532 6.01289 6.2194C6.16723 5.44347 6.54819 4.73074 7.1076 4.17133C7.66701 3.61192 8.37975 3.23096 9.15567 3.07662C9.93159 2.92228 10.7359 3.00149 11.4668 3.30424C12.1977 3.60699 12.8224 4.11968 13.2619 4.77748C13.7014 5.43527 13.936 6.20863 13.936 6.99976C13.936 8.06062 13.5146 9.07804 12.7645 9.82819C12.0143 10.5783 10.9969 10.9998 9.93603 10.9998Z" fill="#4B5563"/>
</svg>
