<svg width="16" height="17" viewBox="0 0 16 17" fill="none" xmlns="http://www.w3.org/2000/svg">
<path d="M10.4584 0.0158691H5.55C1.06665 0.0158691 0 1.08252 0 5.55752V10.4659C0 14.9492 1.05835 16.0159 5.54165 16.0159H10.45C14.9334 16.0159 16 14.9575 16 10.4742V5.56587C16 1.08252 14.9416 0.0158691 10.4584 0.0158691ZM12.9166 11.4325H11.75C11.3084 11.4325 11.175 11.0742 10.3834 10.2825C9.69165 9.61587 9.4 9.53252 9.225 9.53252C8.98335 9.53252 8.91665 9.59917 8.91665 9.93252V10.9825C8.91665 11.2659 8.825 11.4325 8.08335 11.4325C7.36366 11.3842 6.66575 11.1655 6.0471 10.7946C5.42846 10.4237 4.90677 9.91118 4.525 9.29917C3.61869 8.1711 2.98809 6.84712 2.68335 5.43252C2.68335 5.25752 2.75 5.09917 3.08335 5.09917H4.25C4.55 5.09917 4.65835 5.23252 4.775 5.54087C5.34165 7.20752 6.30835 8.65752 6.7 8.65752C6.85 8.65752 6.91665 8.59087 6.91665 8.21587V6.49917C6.86665 5.71587 6.45 5.64917 6.45 5.36587C6.45549 5.29112 6.48989 5.22146 6.5459 5.17167C6.60191 5.12187 6.67513 5.09587 6.75 5.09917H8.58335C8.83335 5.09917 8.91665 5.22417 8.91665 5.52417V7.84087C8.91665 8.09087 9.025 8.17417 9.1 8.17417C9.25 8.17417 9.36665 8.09087 9.64165 7.81587C10.2326 7.09521 10.7154 6.29234 11.075 5.43252C11.1117 5.32906 11.1813 5.24046 11.2731 5.18027C11.3649 5.12007 11.4738 5.09159 11.5834 5.09917H12.75C13.1 5.09917 13.175 5.27417 13.1 5.52417C12.6755 6.47482 12.1503 7.37721 11.5334 8.21587C11.4084 8.40752 11.3584 8.50752 11.5334 8.73252C11.65 8.90752 12.0584 9.24917 12.3334 9.57417C12.7333 9.97316 13.0655 10.4348 13.3166 10.9409C13.4166 11.2659 13.25 11.4325 12.9166 11.4325Z" fill="#4B5563"/>
</svg>
