<svg width="16" height="12" viewBox="0 0 16 12" fill="none" xmlns="http://www.w3.org/2000/svg">
<path d="M15.9963 4.40599C16.0323 3.39655 15.8047 2.39467 15.3349 1.49337C15.0161 1.12355 14.5737 0.873975 14.0848 0.788141C12.0625 0.610087 10.0317 0.537109 8.00136 0.569519C5.97838 0.535638 3.95498 0.606261 1.93973 0.781089C1.54131 0.851412 1.17259 1.03275 0.878584 1.30296C0.224452 1.8883 0.15177 2.88974 0.0790889 3.73601C-0.026363 5.2576 -0.026363 6.78434 0.0790889 8.30592C0.100116 8.78224 0.173207 9.25505 0.297133 9.71639C0.384769 10.0726 0.562073 10.4021 0.813171 10.6755C1.10918 10.96 1.48648 11.1517 1.89612 11.2256C3.46307 11.4133 5.04193 11.491 6.62041 11.4583C9.16426 11.4936 11.3956 11.4583 14.0339 11.2608C14.4536 11.1915 14.8415 10.9996 15.1459 10.7108C15.3494 10.5132 15.5014 10.2715 15.5893 10.0055C15.8492 9.23162 15.9769 8.42166 15.9672 7.60774C15.9963 7.21281 15.9963 4.82913 15.9963 4.40599ZM6.35876 8.03088V3.66549L10.6615 5.85877C9.45499 6.50758 7.86327 7.24102 6.35876 8.03088Z" fill="#4B5563"/>
</svg>
